<svg xmlns="http://www.w3.org/2000/svg" width="14" height="14" viewBox="0 0 14 14" fill="none">
<g id="ic" clip-path="url(#clip0_10_242)">
<path id="Vector" d="M12.8334 12.834H1.16675" stroke="#f2ab19" stroke-width="0.875" stroke-linecap="round" fill="#000000"/>
<path id="Vector_2" opacity="0.5" d="M12.25 12.834V8.45898C12.25 8.22692 12.1578 8.00436 11.9937 7.84027C11.8296 7.67617 11.6071 7.58398 11.375 7.58398H9.625C9.39294 7.58398 9.17038 7.67617 9.00628 7.84027C8.84219 8.00436 8.75 8.22692 8.75 8.45898V12.834" stroke="#f2ab19" stroke-width="0.875" fill="#000000"/>
<path id="Vector_3" d="M8.75 12.8337V2.91699C8.75 2.09216 8.75 1.67974 8.49333 1.42366C8.23783 1.16699 7.82542 1.16699 7 1.16699C6.17517 1.16699 5.76275 1.16699 5.50667 1.42366C5.25 1.67916 5.25 2.09158 5.25 2.91699V12.8337" stroke="#f2ab19" stroke-width="0.875" fill="#000000"/>
<path id="Vector_4" opacity="0.5" d="M5.25 12.8337V5.54199C5.25 5.30993 5.15781 5.08737 4.99372 4.92327C4.82962 4.75918 4.60706 4.66699 4.375 4.66699H2.625C2.39294 4.66699 2.17038 4.75918 2.00628 4.92327C1.84219 5.08737 1.75 5.30993 1.75 5.54199V12.8337" stroke="#f2ab19" stroke-width="0.875" fill="#000000"/>
</g>
<defs fill="#000000">
<clipPath id="clip0_10_242" fill="#000000">
<rect width="14" height="14" fill="white"/>
</clipPath>
</defs>
</svg>