<svg width="10" height="14" viewBox="0 0 10 14" fill="none" xmlns="http://www.w3.org/2000/svg">
<g id="Group">
<path id="Vector" opacity="0.5" d="M0.916748 5.25033C0.916748 3.61174 0.916748 2.79274 1.30991 2.20416C1.4802 1.94927 1.69903 1.73044 1.95391 1.56016C2.5425 1.16699 3.36091 1.16699 5.00008 1.16699C6.63867 1.16699 7.45767 1.16699 8.04625 1.56016C8.30113 1.73044 8.51997 1.94927 8.69025 2.20416C9.08342 2.79274 9.08342 3.61116 9.08342 5.25033V8.75033C9.08342 10.3889 9.08342 11.2079 8.69025 11.7965C8.51993 12.0513 8.3011 12.2702 8.04625 12.4405C7.45767 12.8337 6.63925 12.8337 5.00008 12.8337C3.3615 12.8337 2.5425 12.8337 1.95391 12.4405C1.69905 12.2702 1.48022 12.0514 1.30991 11.7965C0.916748 11.2079 0.916748 10.3895 0.916748 8.75033V5.25033Z" stroke="#F4F7FB" stroke-width="0.875"/>
<path id="Vector_2" d="M6.75 9.04199C6.75 9.50612 6.56563 9.95124 6.23744 10.2794C5.90925 10.6076 5.46413 10.792 5 10.792C4.53587 10.792 4.09075 10.6076 3.76256 10.2794C3.43437 9.95124 3.25 9.50612 3.25 9.04199C3.25 8.57786 3.43437 8.13274 3.76256 7.80456C4.09075 7.47637 4.53587 7.29199 5 7.29199C5.46413 7.29199 5.90925 7.47637 6.23744 7.80456C6.56563 8.13274 6.75 8.57786 6.75 9.04199Z" stroke="#F4F7FB" stroke-width="0.875"/>
<path id="Vector_3" d="M4.41667 5.54232C4.41667 5.69703 4.35521 5.8454 4.24581 5.9548C4.13642 6.06419 3.98804 6.12565 3.83333 6.12565C3.67862 6.12565 3.53025 6.06419 3.42085 5.9548C3.31146 5.8454 3.25 5.69703 3.25 5.54232C3.25 5.38761 3.31146 5.23924 3.42085 5.12984C3.53025 5.02044 3.67862 4.95898 3.83333 4.95898C3.98804 4.95898 4.13642 5.02044 4.24581 5.12984C4.35521 5.23924 4.41667 5.38761 4.41667 5.54232Z" fill="#F4F7FB"/>
<path id="Vector_4" d="M3.83333 4.08366C4.1555 4.08366 4.41667 3.82249 4.41667 3.50033C4.41667 3.17816 4.1555 2.91699 3.83333 2.91699C3.51117 2.91699 3.25 3.17816 3.25 3.50033C3.25 3.82249 3.51117 4.08366 3.83333 4.08366Z" fill="#F4F7FB"/>
<path id="Vector_5" d="M6.75016 5.54232C6.75016 5.69703 6.6887 5.8454 6.57931 5.9548C6.46991 6.06419 6.32154 6.12565 6.16683 6.12565C6.01212 6.12565 5.86375 6.06419 5.75435 5.9548C5.64495 5.8454 5.5835 5.69703 5.5835 5.54232C5.5835 5.38761 5.64495 5.23924 5.75435 5.12984C5.86375 5.02044 6.01212 4.95898 6.16683 4.95898C6.32154 4.95898 6.46991 5.02044 6.57931 5.12984C6.6887 5.23924 6.75016 5.38761 6.75016 5.54232Z" fill="#F4F7FB"/>
<path id="Vector_6" d="M6.16683 4.08366C6.489 4.08366 6.75016 3.82249 6.75016 3.50033C6.75016 3.17816 6.489 2.91699 6.16683 2.91699C5.84466 2.91699 5.5835 3.17816 5.5835 3.50033C5.5835 3.82249 5.84466 4.08366 6.16683 4.08366Z" fill="#F4F7FB"/>
</g>
</svg>
