<svg width="112" height="16" viewBox="0 0 112 16" fill="none" xmlns="http://www.w3.org/2000/svg">
<g id="Logo\main">
<path id="path1250" d="M0 0V3.10826H5.53357L3.02903 15.9986C3.82424 15.9986 4.48643 15.9986 5.14407 15.9986L6.5944 3.10798H6.90849L8.35667 15.9986C9.0618 15.9986 9.76694 16.0018 10.4721 15.9986L7.94203 3.10826H13.4951V0H0ZM6.68785 4.43288L6.59772 6.35062H6.90369L6.81339 4.43288H6.68785ZM6.54148 7.29485L6.46093 9.02933H7.04047L6.95992 7.29485H6.54148ZM6.39494 10.1568L6.2876 12.4407H7.2138L7.10663 10.1568H6.39494ZM6.21169 13.7513L6.10434 15.9985H7.39689L7.28972 13.7513H6.21169Z" fill="white"/>
<path id="path1252" d="M24.0564 15.9986L21.1052 10.2391H18.9609V15.9986H15.6926V0H22.9107C24.6173 0 25.9505 0.472348 26.9104 1.41702C27.8855 2.34647 28.3731 3.61111 28.3731 5.21097C28.3731 6.49084 28.0608 7.53457 27.4361 8.3421C26.8114 9.14968 25.9276 9.69819 24.7849 9.98768L28.0789 15.9986H24.0564ZM18.9609 3.1083V7.38219H22.5451C23.3831 7.38219 24.0078 7.19934 24.4192 6.83367C24.8458 6.45274 25.0591 5.92708 25.0591 5.25666C25.0591 4.58624 24.8458 4.06058 24.4192 3.67965C23.9926 3.29875 23.3679 3.1083 22.5451 3.1083H18.9609Z" fill="white"/>
<path id="path1254" d="M42.136 15.9986L40.7875 12.2275H34.3195L32.9482 15.9986H29.4971L35.4851 0H39.6219L45.6099 15.9986H42.136ZM35.4394 9.11921H39.6447L37.5421 3.314L35.4394 9.11921Z" fill="white"/>
<path id="path1256" d="M57.8984 3.1083H50.4248V6.46799H57.2813V9.5763H50.4248V15.9986H47.1565V0H57.8984V3.1083Z" fill="white"/>
<path id="path1258" d="M70.5681 3.1083H63.0945V6.46799H69.951V9.5763H63.0945V15.9986H59.8262V0H70.5681V3.1083Z" fill="white"/>
<path id="path1260" d="M72.4956 15.9986V0H75.7639V15.9986H72.4956Z" fill="white"/>
<path id="path1262" d="M90.2792 0V3.1083H85.6625V15.9986H82.3942V3.1083H77.8003V0H90.2792Z" fill="white"/>
<path id="path1264" d="M92.3074 15.9986V0H95.5757V15.9986H92.3074Z" fill="white"/>
<path id="path1266" d="M111.457 15.9986H107.549L104.235 10.4905L100.989 15.9986H97.104L102.269 7.70219L97.3554 0H101.241L104.326 5.1424L107.435 0H111.32L106.315 7.95358L111.457 15.9986Z" fill="white"/>
</g>
</svg>
