<svg width="12" height="12" viewBox="0 0 12 12" fill="none" xmlns="http://www.w3.org/2000/svg">
<g id="Group">
<path id="Vector" d="M0.75 4.08084C0.75 3.22101 0.75 2.79167 0.97925 2.54084C1.06038 2.45161 1.15909 2.38011 1.26917 2.33084C1.5795 2.19317 1.98725 2.32909 2.80275 2.60092C3.42517 2.80859 3.73608 2.91242 4.05108 2.90134C4.16664 2.89754 4.28153 2.8823 4.39408 2.85584C4.70033 2.78292 4.97333 2.60092 5.51933 2.23751L6.3255 1.69967C7.0255 1.23301 7.37492 0.999673 7.77625 0.94659C8.17758 0.89234 8.57658 1.02534 9.374 1.29134L10.0536 1.51767C10.6311 1.71017 10.9198 1.80642 11.0849 2.03567C11.25 2.26492 11.25 2.56942 11.25 3.17784V7.91976C11.25 8.77901 11.25 9.20892 11.0207 9.45976C10.9395 9.54857 10.8408 9.61966 10.7308 9.66859C10.4205 9.80684 10.0128 9.67092 9.19725 9.39909C8.57483 9.19142 8.26392 9.08759 7.94892 9.09867C7.83336 9.10248 7.71847 9.11772 7.60592 9.14417C7.29967 9.21709 7.02667 9.39909 6.48067 9.76251L5.6745 10.3003C4.9745 10.767 4.62508 11.0003 4.22375 11.0534C3.82242 11.1077 3.42342 10.9747 2.626 10.7087L1.94642 10.4823C1.36892 10.2898 1.08017 10.1936 0.915083 9.96434C0.75 9.73509 0.75 9.43001 0.75 8.82217V4.08026V4.08084Z" stroke="#F2AB19" stroke-width="0.875"/>
<path id="Vector_2" opacity="0.5" d="M4.25 2.87275V10.9583M7.75 0.75V8.91667" stroke="#F2AB19" stroke-width="0.875"/>
</g>
</svg>