<svg xmlns="http://www.w3.org/2000/svg" width="14" height="14" viewBox="0 0 14 14" fill="none">
<g id="ic" clip-path="url(#clip0_10_212)">
<path id="Vector" d="M13.45 5.025C13.0986 4.1933 12.5892 3.43767 11.95 2.8C11.3123 2.16079 10.5567 1.65138 9.725 1.3C8.86094 0.934375 7.94531 0.75 7 0.75C6.05469 0.75 5.13906 0.934375 4.275 1.3C3.4433 1.65138 2.68767 2.16079 2.05 2.8C1.41079 3.43767 0.901382 4.1933 0.55 5.025C0.184375 5.88906 0 6.80469 0 7.75C0 9.82344 0.910937 11.7766 2.49844 13.1109L2.525 13.1328C2.61563 13.2078 2.72969 13.25 2.84687 13.25H11.1547C11.2719 13.25 11.3859 13.2078 11.4766 13.1328L11.5031 13.1109C13.0891 11.7766 14 9.82344 14 7.75C14 6.80469 13.8141 5.88906 13.45 5.025ZM10.8969 12.0625H3.10313C2.49937 11.5181 2.01682 10.8529 1.68681 10.1099C1.35679 9.36698 1.18667 8.56294 1.1875 7.75C1.1875 6.19688 1.79219 4.7375 2.89062 3.64063C3.98906 2.54219 5.44844 1.9375 7 1.9375C8.55313 1.9375 10.0125 2.54219 11.1094 3.64063C12.2078 4.73906 12.8125 6.19844 12.8125 7.75C12.8125 9.4 12.1172 10.9609 10.8969 12.0625ZM8.74219 5.58594C8.71869 5.56268 8.68697 5.54963 8.65391 5.54963C8.62084 5.54963 8.58912 5.56268 8.56563 5.58594L7.24531 6.90625C6.95312 6.82813 6.62969 6.90313 6.4 7.13281C6.31865 7.21401 6.2541 7.31046 6.21007 7.41663C6.16603 7.52281 6.14336 7.63662 6.14336 7.75156C6.14336 7.86651 6.16603 7.98032 6.21007 8.08649C6.2541 8.19267 6.31865 8.28911 6.4 8.37031C6.4812 8.45167 6.57765 8.51621 6.68382 8.56025C6.78999 8.60428 6.90381 8.62695 7.01875 8.62695C7.13369 8.62695 7.24751 8.60428 7.35368 8.56025C7.45985 8.51621 7.5563 8.45167 7.6375 8.37031C7.74632 8.26182 7.82458 8.12652 7.86436 7.9781C7.90414 7.82967 7.90404 7.67337 7.86406 7.525L9.18437 6.20469C9.23281 6.15625 9.23281 6.07656 9.18437 6.02813L8.74219 5.58594ZM6.65625 4H7.34375C7.4125 4 7.46875 3.94375 7.46875 3.875V2.625C7.46875 2.55625 7.4125 2.5 7.34375 2.5H6.65625C6.5875 2.5 6.53125 2.55625 6.53125 2.625V3.875C6.53125 3.94375 6.5875 4 6.65625 4ZM10.7188 7.40625V8.09375C10.7188 8.1625 10.775 8.21875 10.8438 8.21875H12.0938C12.1625 8.21875 12.2188 8.1625 12.2188 8.09375V7.40625C12.2188 7.3375 12.1625 7.28125 12.0938 7.28125H10.8438C10.775 7.28125 10.7188 7.3375 10.7188 7.40625ZM10.9172 4.325L10.4312 3.83906C10.4078 3.8158 10.376 3.80275 10.343 3.80275C10.3099 3.80275 10.2782 3.8158 10.2547 3.83906L9.37031 4.72344C9.34705 4.74693 9.334 4.77866 9.334 4.81172C9.334 4.84478 9.34705 4.87651 9.37031 4.9L9.85625 5.38594C9.90469 5.43438 9.98438 5.43438 10.0328 5.38594L10.9172 4.50156C10.9656 4.45313 10.9656 4.37344 10.9172 4.325ZM3.75156 3.83906C3.72807 3.8158 3.69634 3.80275 3.66328 3.80275C3.63022 3.80275 3.59849 3.8158 3.575 3.83906L3.08906 4.325C3.0658 4.34849 3.05275 4.38022 3.05275 4.41328C3.05275 4.44634 3.0658 4.47807 3.08906 4.50156L3.97344 5.38594C4.02187 5.43438 4.10156 5.43438 4.15 5.38594L4.63594 4.9C4.68438 4.85156 4.68438 4.77188 4.63594 4.72344L3.75156 3.83906ZM3.09375 7.28125H1.84375C1.775 7.28125 1.71875 7.3375 1.71875 7.40625V8.09375C1.71875 8.1625 1.775 8.21875 1.84375 8.21875H3.09375C3.1625 8.21875 3.21875 8.1625 3.21875 8.09375V7.40625C3.21875 7.3375 3.1625 7.28125 3.09375 7.28125Z" fill="#f2ab19"/>
</g>
<defs fill="#000000">
<clipPath id="clip0_10_212" fill="#000000">
<rect width="14" height="14" fill="white"/>
</clipPath>
</defs>
</svg>