<svg width="22" height="20" viewBox="0 0 22 20" fill="none" xmlns="http://www.w3.org/2000/svg">
<g id="Group">
<path id="Vector" d="M21 3.81387V4.50387C21 5.54187 21 6.06087 20.74 6.49087C20.48 6.92087 20.007 7.18787 19.058 7.72187L16.145 9.36187C15.509 9.71987 15.19 9.89987 14.963 10.0969C14.5056 10.4796 14.1889 11.0039 14.063 11.5869C14 11.8719 14 12.2059 14 12.8729V15.5429C14 17.4519 14 18.4059 13.332 18.8239C12.664 19.2419 11.725 18.8739 9.846 18.1399C8.951 17.7899 8.504 17.6159 8.252 17.2609C8 16.9069 8 16.4509 8 15.5419V12.8719C8 12.2059 8 11.8719 7.936 11.5869C7.81068 11.0042 7.49469 10.4799 7.038 10.0969C6.81 9.89987 6.491 9.71987 5.855 9.36187L2.942 7.72187C1.993 7.18787 1.519 6.92187 1.26 6.49187C1 6.05987 1 5.54087 1 4.50287V3.81287" stroke="#646E82" stroke-width="1.5"/>
<path id="Vector_2" opacity="0.5" d="M21 3.815C21 2.488 21 1.825 20.56 1.412C20.122 1 19.415 1 18 1H4C2.586 1 1.879 1 1.44 1.412C1 1.824 1 2.488 1 3.815" stroke="#646E82" stroke-width="1.5"/>
</g>
</svg>
